<svg width="197" height="37" viewBox="0 0 197 37" fill="none" xmlns="http://www.w3.org/2000/svg">
<path d="M53.9991 25.1851C51.6494 25.1851 49.5652 24.6626 47.7467 23.6073C45.9282 22.5622 44.5081 21.0971 43.4763 19.2222C42.4444 17.3472 41.9336 15.1752 41.9336 12.6855C41.9336 10.1958 42.4444 7.96228 43.4558 6.0566C44.4673 4.15092 45.8873 2.66531 47.7058 1.59977C49.5244 0.534233 51.6391 0.00146484 54.0502 0.00146484C56.4613 0.00146484 58.4433 0.523988 60.18 1.56904C61.9168 2.61409 63.2654 4.01773 64.2359 5.75948C65.1963 7.50123 65.6867 9.41715 65.6867 11.5175C65.6867 11.8351 65.6867 12.1835 65.6662 12.5625C65.6458 12.9314 65.6254 13.3412 65.5947 13.792H46.9703C47.1337 16.1178 47.9 17.88 49.2587 19.089C50.6277 20.298 52.2113 20.9024 54.0093 20.9024C55.4601 20.9024 56.6758 20.5746 57.6566 19.9086C58.6374 19.2427 59.3729 18.3513 59.8531 17.2243H64.9715C64.3279 19.4886 63.0508 21.3737 61.1302 22.8901C59.2095 24.4064 56.8393 25.1646 54.0093 25.1646L53.9991 25.1851ZM53.9991 4.23289C52.293 4.23289 50.781 4.74517 49.4631 5.75948C48.1451 6.77379 47.3381 8.30038 47.052 10.329H60.5683C60.4763 8.45407 59.8122 6.9787 58.5863 5.87218C57.3603 4.7759 55.8381 4.22264 53.9991 4.22264V4.23289Z" fill="white"/>
<path d="M97.1026 25.1851C94.7528 25.1851 92.6584 24.6523 90.7991 23.5868C88.9499 22.5213 87.4992 21.0459 86.4571 19.1607C85.415 17.2755 84.8838 15.083 84.8838 12.6035C84.8838 10.1241 85.4048 7.93156 86.4571 6.04637C87.4992 4.16118 88.9499 2.68582 90.7991 1.62028C92.6482 0.55474 94.7528 0.0219727 97.1026 0.0219727C100.065 0.0219727 102.548 0.800637 104.561 2.34772C106.573 3.8948 107.871 5.99515 108.443 8.6385H103.089C102.762 7.31683 102.058 6.28202 100.964 5.54434C99.8712 4.80666 98.5839 4.42757 97.1026 4.42757C95.846 4.42757 94.6915 4.74518 93.629 5.37016C92.5665 5.99514 91.7185 6.91725 91.0749 8.12623C90.4313 9.3352 90.1146 10.8311 90.1146 12.6035C90.1146 14.376 90.4313 15.8719 91.0749 17.0809C91.7185 18.2898 92.5665 19.2222 93.629 19.8677C94.6915 20.5131 95.846 20.8307 97.1026 20.8307C98.5839 20.8307 99.8712 20.4619 100.964 19.714C102.058 18.9763 102.762 17.921 103.089 16.5686H108.443C107.891 19.1505 106.614 21.2303 104.581 22.8081C102.558 24.386 100.065 25.1851 97.1026 25.1851Z" fill="white"/>
<path d="M123.746 25.1851C121.458 25.1851 119.414 24.6626 117.596 23.6073C115.777 22.552 114.337 21.0869 113.274 19.2017C112.212 17.3165 111.681 15.1137 111.681 12.5933C111.681 10.0729 112.222 7.87008 113.295 5.98489C114.368 4.09971 115.829 2.63459 117.667 1.5793C119.496 0.534246 121.55 0.0117188 123.797 0.0117188C126.045 0.0117188 128.129 0.534246 129.948 1.5793C131.766 2.62434 133.217 4.09971 134.289 5.98489C135.362 7.87008 135.904 10.0729 135.904 12.5933C135.904 15.1137 135.362 17.3165 134.289 19.2017C133.207 21.0869 131.756 22.5622 129.917 23.6073C128.088 24.6523 126.024 25.1851 123.736 25.1851H123.746ZM123.746 20.7795C124.972 20.7795 126.106 20.4721 127.148 19.8574C128.19 19.2427 129.038 18.3308 129.682 17.1218C130.326 15.9129 130.642 14.4068 130.642 12.5933C130.642 10.7798 130.326 9.27372 129.702 8.06474C129.079 6.85577 128.241 5.94391 127.189 5.32918C126.147 4.71444 125.013 4.40707 123.787 4.40707C122.561 4.40707 121.427 4.71444 120.385 5.32918C119.343 5.94391 118.495 6.85577 117.851 8.06474C117.208 9.27372 116.891 10.7798 116.891 12.5933C116.891 14.4068 117.208 15.9129 117.851 17.1218C118.495 18.3308 119.333 19.2427 120.365 19.8574C121.396 20.4721 122.52 20.7795 123.746 20.7795Z" fill="white"/>
<path d="M145.129 19.4783H145.119V24.6011H145.129V19.4783Z" fill="white"/>
<path d="M167.381 24.6113V10.329H172.499V24.6113H167.381Z" fill="white"/>
<path d="M187.354 25.1851C184.33 25.1851 181.837 24.4474 179.876 22.9618C177.914 21.4762 176.79 19.5091 176.494 17.0604H181.653C181.909 18.1567 182.522 19.0993 183.482 19.8882C184.442 20.6771 185.72 21.0767 187.293 21.0767C188.866 21.0767 189.959 20.7488 190.674 20.1136C191.39 19.4783 191.737 18.7304 191.737 17.8903C191.737 16.6608 191.247 15.8309 190.266 15.4006C189.285 14.96 187.926 14.5707 186.189 14.2121C184.841 13.9252 183.492 13.5359 182.154 13.0544C180.816 12.5728 179.712 11.8864 178.823 10.995C177.935 10.1036 177.495 8.9049 177.495 7.38855C177.495 5.28821 178.302 3.53621 179.906 2.13257C181.51 0.728925 183.768 0.0322266 186.659 0.0322266C189.326 0.0322266 191.492 0.677698 193.147 1.96864C194.802 3.25958 195.772 5.0833 196.069 7.43978H191.144C190.981 6.40498 190.511 5.60582 189.724 5.02182C188.938 4.43783 187.885 4.15095 186.567 4.15095C185.25 4.15095 184.279 4.41733 183.574 4.9501C182.869 5.48287 182.512 6.16933 182.512 7.00947C182.512 7.84961 183.002 8.50532 183.983 8.99711C184.963 9.47865 186.261 9.91921 187.865 10.3085C189.469 10.6671 190.961 11.077 192.33 11.5483C193.699 12.0196 194.802 12.706 195.64 13.6076C196.477 14.5092 196.896 15.8309 196.896 17.5727C196.927 19.7652 196.079 21.5889 194.363 23.0438C192.636 24.4987 190.296 25.2261 187.344 25.2261L187.354 25.1851Z" fill="white"/>
<path d="M161.68 5.72875V24.6114H156.571V5.72875H145.119V24.6114H140.011V5.72875C141.819 3.90503 142.912 2.819 144.598 1.12848L145.119 0.605957H156.571C158.564 2.60385 159.687 3.72061 161.68 5.72875Z" fill="white"/>
<path d="M83.4942 0.595703V5.71849H74.657V24.6011H69.5488V5.71849C71.3776 3.88453 74.4936 0.759632 74.657 0.595703H83.4942Z" fill="white"/>
<path d="M38.2765 5.71849V24.6011H33.1581V5.71849H21.7158V24.6011H16.6076V5.71849H5.15506V24.6011H0.046875V5.71849L5.15506 0.595703H16.6076C16.6076 0.595703 18.4772 2.47064 19.1617 3.1571C19.2434 3.07513 20.827 1.48707 21.7158 0.595703H33.1684L38.2765 5.71849Z" fill="white"/>
<path d="M145.129 19.4783H145.119V24.6011H145.129V19.4783Z" fill="white"/>
<path d="M169.935 6.78403C171.639 6.78403 173.02 5.39873 173.02 3.68987C173.02 1.98101 171.639 0.595703 169.935 0.595703C168.231 0.595703 166.85 1.98101 166.85 3.68987C166.85 5.39873 168.231 6.78403 169.935 6.78403Z" fill="#FB5C00"/>
<path d="M18.5557 35.0847V30.4878H21.4475V31.0263H19.2114V32.4973H21.2508V33.0226H19.2114V34.5462H21.4475V35.0847H18.5557Z" fill="white"/>
<path d="M22.3022 33.4561V32.9044H24.9515V33.4561H22.3022Z" fill="white"/>
<path d="M27.9334 35.1635C27.4788 35.1635 27.0875 35.065 26.7596 34.868C26.4318 34.6666 26.1782 34.3886 25.999 34.0339C25.8197 33.675 25.7301 33.259 25.7301 32.7862C25.7301 32.3178 25.8197 31.9041 25.999 31.5451C26.1782 31.1861 26.4318 30.9081 26.7596 30.7111C27.0875 30.5097 27.4788 30.409 27.9334 30.409C28.4712 30.409 28.9083 30.5381 29.2449 30.7964C29.5816 31.0547 29.7958 31.4181 29.8876 31.8865H29.1663C29.1007 31.6151 28.9652 31.3984 28.7597 31.2364C28.5586 31.0744 28.2832 30.9934 27.9334 30.9934C27.623 30.9934 27.352 31.0657 27.1203 31.2102C26.8886 31.3546 26.7094 31.5604 26.5826 31.8274C26.4602 32.0945 26.399 32.4141 26.399 32.7862C26.399 33.1584 26.4602 33.4801 26.5826 33.7516C26.7094 34.0186 26.8886 34.2244 27.1203 34.3689C27.352 34.509 27.623 34.579 27.9334 34.579C28.2832 34.579 28.5586 34.5024 28.7597 34.3492C28.9608 34.1916 29.0963 33.9792 29.1663 33.7122H29.8876C29.7958 34.1675 29.5816 34.5243 29.2449 34.7826C28.9083 35.0365 28.4712 35.1635 27.9334 35.1635Z" fill="white"/>
<path d="M32.1276 35.1635C31.8215 35.1635 31.5439 35.0934 31.2947 34.9533C31.0499 34.8089 30.8554 34.6097 30.7111 34.3557C30.5669 34.0974 30.4947 33.7975 30.4947 33.4561C30.4947 33.1146 30.5669 32.8169 30.7111 32.5629C30.8598 32.3046 31.0587 32.1054 31.3079 31.9654C31.5571 31.8209 31.8347 31.7486 32.1407 31.7486C32.4511 31.7486 32.7287 31.8209 32.9735 31.9654C33.2227 32.1054 33.4194 32.3025 33.5637 32.5564C33.7079 32.8103 33.7801 33.1102 33.7801 33.4561C33.7801 33.7975 33.7057 34.0974 33.5571 34.3557C33.4128 34.6097 33.2161 34.8089 32.9669 34.9533C32.7177 35.0934 32.4379 35.1635 32.1276 35.1635ZM32.1341 34.5987C32.3046 34.5987 32.4642 34.5571 32.6128 34.4739C32.7615 34.3864 32.8817 34.2572 32.9735 34.0865C33.0653 33.9157 33.1112 33.7056 33.1112 33.4561C33.1112 33.2021 33.0653 32.992 32.9735 32.8256C32.886 32.6549 32.768 32.5279 32.6194 32.4447C32.4707 32.3572 32.3112 32.3134 32.1407 32.3134C31.9745 32.3134 31.815 32.3572 31.662 32.4447C31.5133 32.5279 31.3931 32.6549 31.3013 32.8256C31.2139 32.992 31.1702 33.2021 31.1702 33.4561C31.1702 33.7056 31.2139 33.9157 31.3013 34.0865C31.3931 34.2572 31.5111 34.3864 31.6554 34.4739C31.8041 34.5571 31.9636 34.5987 32.1341 34.5987Z" fill="white"/>
<path d="M34.5321 35.0847V31.8274H35.1157L35.1682 32.2871C35.2731 32.1164 35.4108 31.9851 35.5813 31.8931C35.7562 31.7968 35.9551 31.7486 36.178 31.7486C36.3485 31.7486 36.5015 31.7705 36.6371 31.8143C36.777 31.8581 36.8994 31.926 37.0043 32.0179C37.1092 32.1098 37.1966 32.2258 37.2666 32.3659C37.3802 32.1733 37.5376 32.0223 37.7387 31.9128C37.9398 31.8034 38.154 31.7486 38.3814 31.7486C38.648 31.7486 38.8776 31.8034 39.0699 31.9128C39.2666 32.0179 39.4153 32.1799 39.5158 32.3988C39.6207 32.6133 39.6732 32.8825 39.6732 33.2065V35.0847H39.024V33.2722C39.024 32.957 38.9606 32.7184 38.8338 32.5564C38.7114 32.39 38.5278 32.3068 38.283 32.3068C38.1213 32.3068 37.9748 32.3506 37.8436 32.4382C37.7125 32.5214 37.6098 32.6439 37.5354 32.8059C37.4655 32.9679 37.4305 33.1649 37.4305 33.397V35.0847H36.7748V33.2722C36.7748 32.957 36.7114 32.7184 36.5846 32.5564C36.4622 32.39 36.2786 32.3068 36.0338 32.3068C35.872 32.3068 35.7256 32.3506 35.5944 32.4382C35.4676 32.5214 35.3671 32.6439 35.2928 32.8059C35.2228 32.9679 35.1878 33.1649 35.1878 33.397V35.0847H34.5321Z" fill="white"/>
<path d="M40.4939 35.0847V31.8274H41.0775L41.13 32.2871C41.2349 32.1164 41.3726 31.9851 41.5431 31.8931C41.718 31.7968 41.9169 31.7486 42.1399 31.7486C42.3104 31.7486 42.4634 31.7705 42.5989 31.8143C42.7388 31.8581 42.8612 31.926 42.9661 32.0179C43.071 32.1098 43.1585 32.2258 43.2284 32.3659C43.3421 32.1733 43.4995 32.0223 43.7006 31.9128C43.9017 31.8034 44.1159 31.7486 44.3432 31.7486C44.6099 31.7486 44.8394 31.8034 45.0318 31.9128C45.2285 32.0179 45.3771 32.1799 45.4777 32.3988C45.5826 32.6133 45.6351 32.8825 45.6351 33.2065V35.0847H44.9859V33.2722C44.9859 32.957 44.9225 32.7184 44.7957 32.5564C44.6733 32.39 44.4897 32.3068 44.2449 32.3068C44.0831 32.3068 43.9366 32.3506 43.8055 32.4382C43.6743 32.5214 43.5716 32.6439 43.4973 32.8059C43.4273 32.9679 43.3924 33.1649 43.3924 33.397V35.0847H42.7366V33.2722C42.7366 32.957 42.6732 32.7184 42.5464 32.5564C42.424 32.39 42.2404 32.3068 41.9956 32.3068C41.8339 32.3068 41.6874 32.3506 41.5563 32.4382C41.4295 32.5214 41.3289 32.6439 41.2546 32.8059C41.1847 32.9679 41.1497 33.1649 41.1497 33.397V35.0847H40.4939Z" fill="white"/>
<path d="M47.9575 35.1635C47.6383 35.1635 47.3563 35.0934 47.1115 34.9533C46.8667 34.8089 46.6744 34.6097 46.5345 34.3557C46.3946 34.1018 46.3246 33.8041 46.3246 33.4626C46.3246 33.1211 46.3924 32.8234 46.5279 32.5695C46.6678 32.3112 46.8602 32.1098 47.105 31.9654C47.3542 31.8209 47.6427 31.7486 47.9706 31.7486C48.2897 31.7486 48.5651 31.8209 48.7968 31.9654C49.0329 32.1054 49.2143 32.2915 49.3411 32.5235C49.4679 32.7556 49.5313 33.0139 49.5313 33.2984C49.5313 33.3422 49.5313 33.3904 49.5313 33.4429C49.5313 33.4955 49.5291 33.5502 49.5247 33.6071H46.8099V33.1474H48.8755C48.8624 32.8847 48.7706 32.6768 48.6001 32.5235C48.4296 32.3703 48.2154 32.2937 47.9575 32.2937C47.7826 32.2937 47.6186 32.3331 47.4656 32.4119C47.317 32.4907 47.1968 32.6067 47.105 32.76C47.0132 32.9088 46.9673 33.0992 46.9673 33.3313V33.5152C46.9673 33.7559 47.0132 33.9573 47.105 34.1193C47.1968 34.2813 47.317 34.4061 47.4656 34.4936C47.6186 34.5768 47.7826 34.6184 47.9575 34.6184C48.1629 34.6184 48.3356 34.5703 48.4755 34.4739C48.6154 34.3776 48.7181 34.2507 48.7837 34.0931H49.4395C49.3826 34.2988 49.2865 34.4827 49.1509 34.6447C49.0154 34.8023 48.8471 34.9292 48.646 35.0256C48.4449 35.1175 48.2154 35.1635 47.9575 35.1635Z" fill="white"/>
<path d="M50.2467 35.0847V31.8274H50.8369L50.8893 32.4513C50.9637 32.3068 51.0577 32.1821 51.1713 32.077C51.285 31.9719 51.4183 31.8909 51.5713 31.834C51.7287 31.7771 51.9058 31.7486 52.1025 31.7486V32.4382H51.9189C51.779 32.4382 51.6457 32.4557 51.5189 32.4907C51.3965 32.5257 51.2872 32.5826 51.191 32.6615C51.0992 32.7403 51.0271 32.8497 50.9746 32.9898C50.9265 33.1255 50.9025 33.2963 50.9025 33.502V35.0847H50.2467Z" fill="white"/>
<path d="M54.1311 35.1635C53.812 35.1635 53.5278 35.0912 53.2786 34.9468C53.0294 34.8023 52.8327 34.6031 52.6884 34.3492C52.5442 34.0909 52.472 33.7932 52.472 33.4561C52.472 33.119 52.5442 32.8234 52.6884 32.5695C52.8327 32.3112 53.0294 32.1098 53.2786 31.9654C53.5278 31.8209 53.812 31.7486 54.1311 31.7486C54.5333 31.7486 54.8677 31.8537 55.1344 32.0639C55.4054 32.2696 55.5759 32.5476 55.6459 32.8979H54.9705C54.9267 32.714 54.8262 32.5717 54.6688 32.471C54.5158 32.3659 54.3344 32.3134 54.1245 32.3134C53.9497 32.3134 53.7879 32.3572 53.6393 32.4447C53.4906 32.5279 53.3704 32.6549 53.2786 32.8256C53.1912 32.9964 53.1475 33.2065 53.1475 33.4561C53.1475 33.6399 53.1737 33.8041 53.2261 33.9486C53.2786 34.0931 53.3486 34.2134 53.436 34.3098C53.5278 34.4061 53.6327 34.4805 53.7507 34.533C53.8732 34.5812 53.9978 34.6053 54.1245 34.6053C54.2644 34.6053 54.3912 34.5834 54.5049 34.5396C54.6229 34.4914 54.7213 34.4236 54.8 34.336C54.883 34.2485 54.9399 34.1412 54.9705 34.0142H55.6459C55.5759 34.3601 55.4054 34.6381 55.1344 34.8483C54.8633 35.0584 54.5289 35.1635 54.1311 35.1635Z" fill="white"/>
<path d="M57.9086 35.1635C57.5895 35.1635 57.3075 35.0934 57.0627 34.9533C56.8179 34.8089 56.6255 34.6097 56.4856 34.3557C56.3457 34.1018 56.2758 33.8041 56.2758 33.4626C56.2758 33.1211 56.3435 32.8234 56.4791 32.5695C56.6189 32.3112 56.8113 32.1098 57.0561 31.9654C57.3053 31.8209 57.5938 31.7486 57.9217 31.7486C58.2408 31.7486 58.5163 31.8209 58.748 31.9654C58.984 32.1054 59.1655 32.2915 59.2922 32.5235C59.419 32.7556 59.4824 33.0139 59.4824 33.2984C59.4824 33.3422 59.4824 33.3904 59.4824 33.4429C59.4824 33.4955 59.4802 33.5502 59.4759 33.6071H56.761V33.1474H58.8267C58.8135 32.8847 58.7217 32.6768 58.5512 32.5235C58.3807 32.3703 58.1665 32.2937 57.9086 32.2937C57.7337 32.2937 57.5698 32.3331 57.4168 32.4119C57.2681 32.4907 57.1479 32.6067 57.0561 32.76C56.9643 32.9088 56.9184 33.0992 56.9184 33.3313V33.5152C56.9184 33.7559 56.9643 33.9573 57.0561 34.1193C57.1479 34.2813 57.2681 34.4061 57.4168 34.4936C57.5698 34.5768 57.7337 34.6184 57.9086 34.6184C58.1141 34.6184 58.2868 34.5703 58.4266 34.4739C58.5665 34.3776 58.6693 34.2507 58.7349 34.0931H59.3906C59.3338 34.2988 59.2376 34.4827 59.1021 34.6447C58.9666 34.8023 58.7982 34.9292 58.5971 35.0256C58.396 35.1175 58.1665 35.1635 57.9086 35.1635Z" fill="white"/>
<path d="M63.3644 35.1635C63.0584 35.1635 62.7808 35.0934 62.5316 34.9533C62.2868 34.8089 62.0922 34.6097 61.948 34.3557C61.8037 34.0974 61.7316 33.7975 61.7316 33.4561C61.7316 33.1146 61.8037 32.8169 61.948 32.5629C62.0966 32.3046 62.2955 32.1054 62.5447 31.9654C62.7939 31.8209 63.0715 31.7486 63.3775 31.7486C63.6879 31.7486 63.9655 31.8209 64.2103 31.9654C64.4595 32.1054 64.6562 32.3025 64.8005 32.5564C64.9448 32.8103 65.0169 33.1102 65.0169 33.4561C65.0169 33.7975 64.9426 34.0974 64.7939 34.3557C64.6497 34.6097 64.4529 34.8089 64.2038 34.9533C63.9546 35.0934 63.6748 35.1635 63.3644 35.1635ZM63.3709 34.5987C63.5414 34.5987 63.701 34.5571 63.8496 34.4739C63.9983 34.3864 64.1185 34.2572 64.2103 34.0865C64.3021 33.9157 64.348 33.7056 64.348 33.4561C64.348 33.2021 64.3021 32.992 64.2103 32.8256C64.1229 32.6549 64.0048 32.5279 63.8562 32.4447C63.7076 32.3572 63.548 32.3134 63.3775 32.3134C63.2114 32.3134 63.0518 32.3572 62.8988 32.4447C62.7502 32.5279 62.6299 32.6549 62.5381 32.8256C62.4507 32.992 62.407 33.2021 62.407 33.4561C62.407 33.7056 62.4507 33.9157 62.5381 34.0865C62.6299 34.2572 62.748 34.3864 62.8922 34.4739C63.0409 34.5571 63.2004 34.5987 63.3709 34.5987Z" fill="white"/>
<path d="M65.7689 35.0847V30.3564H66.4247V32.3659C66.534 32.1733 66.6848 32.0223 66.8771 31.9128C67.0695 31.8034 67.2881 31.7486 67.5329 31.7486C67.7865 31.7486 68.0072 31.8034 68.1952 31.9128C68.3832 32.0179 68.5275 32.1799 68.628 32.3988C68.7286 32.6133 68.7788 32.8825 68.7788 33.2065V35.0847H68.1296V33.2722C68.1296 32.957 68.0662 32.7184 67.9395 32.5564C67.8127 32.39 67.6181 32.3068 67.3558 32.3068C67.181 32.3068 67.0214 32.3506 66.8771 32.4382C66.7372 32.5214 66.6258 32.6439 66.5427 32.8059C66.464 32.9679 66.4247 33.1649 66.4247 33.397V35.0847H65.7689Z" fill="white"/>
<path d="M69.5983 35.0847V31.8274H70.1819L70.2278 32.3988C70.3327 32.1974 70.4814 32.0398 70.6737 31.926C70.8661 31.8077 71.089 31.7486 71.3426 31.7486C71.6049 31.7486 71.83 31.8034 72.018 31.9128C72.206 32.0179 72.3503 32.1777 72.4508 32.3922C72.5557 32.6067 72.6082 32.8782 72.6082 33.2065V35.0847H71.959V33.2722C71.959 32.957 71.8912 32.7184 71.7557 32.5564C71.6246 32.39 71.4278 32.3068 71.1655 32.3068C70.9907 32.3068 70.8333 32.3506 70.6934 32.4382C70.5579 32.5214 70.4508 32.6439 70.3721 32.8059C70.2934 32.9679 70.254 33.1649 70.254 33.397V35.0847H69.5983Z" fill="white"/>
<path d="M74.9293 35.1635C74.6102 35.1635 74.3282 35.0934 74.0834 34.9533C73.8386 34.8089 73.6462 34.6097 73.5063 34.3557C73.3664 34.1018 73.2965 33.8041 73.2965 33.4626C73.2965 33.1211 73.3642 32.8234 73.4998 32.5695C73.6397 32.3112 73.832 32.1098 74.0768 31.9654C74.326 31.8209 74.6145 31.7486 74.9424 31.7486C75.2616 31.7486 75.537 31.8209 75.7687 31.9654C76.0047 32.1054 76.1862 32.2915 76.313 32.5235C76.4397 32.7556 76.5031 33.0139 76.5031 33.2984C76.5031 33.3422 76.5031 33.3904 76.5031 33.4429C76.5031 33.4955 76.5009 33.5502 76.4966 33.6071H73.7817V33.1474H75.8474C75.8343 32.8847 75.7424 32.6768 75.5719 32.5235C75.4015 32.3703 75.1872 32.2937 74.9293 32.2937C74.7544 32.2937 74.5905 32.3331 74.4375 32.4119C74.2889 32.4907 74.1686 32.6067 74.0768 32.76C73.985 32.9088 73.9391 33.0992 73.9391 33.3313V33.5152C73.9391 33.7559 73.985 33.9573 74.0768 34.1193C74.1686 34.2813 74.2889 34.4061 74.4375 34.4936C74.5905 34.5768 74.7544 34.6184 74.9293 34.6184C75.1348 34.6184 75.3075 34.5703 75.4474 34.4739C75.5873 34.3776 75.69 34.2507 75.7556 34.0931H76.4113C76.3545 34.2988 76.2583 34.4827 76.1228 34.6447C75.9873 34.8023 75.819 34.9292 75.6179 35.0256C75.4168 35.1175 75.1872 35.1635 74.9293 35.1635Z" fill="white"/>
<path d="M78.9096 35.0847V30.4878H79.5654V32.4841L81.4015 30.4878H82.2212L80.5162 32.3134L82.254 35.0847H81.454L80.0507 32.8256L79.5654 33.3444V35.0847H78.9096Z" fill="white"/>
<path d="M84.0928 35.1635C83.7868 35.1635 83.5092 35.0934 83.26 34.9533C83.0152 34.8089 82.8206 34.6097 82.6763 34.3557C82.5321 34.0974 82.4599 33.7975 82.4599 33.4561C82.4599 33.1146 82.5321 32.8169 82.6763 32.5629C82.825 32.3046 83.0239 32.1054 83.2731 31.9654C83.5223 31.8209 83.7999 31.7486 84.1059 31.7486C84.4163 31.7486 84.6939 31.8209 84.9387 31.9654C85.1879 32.1054 85.3846 32.3025 85.5289 32.5564C85.6732 32.8103 85.7453 33.1102 85.7453 33.4561C85.7453 33.7975 85.671 34.0974 85.5223 34.3557C85.3781 34.6097 85.1813 34.8089 84.9321 34.9533C84.683 35.0934 84.4032 35.1635 84.0928 35.1635ZM84.0993 34.5987C84.2698 34.5987 84.4294 34.5571 84.578 34.4739C84.7267 34.3864 84.8469 34.2572 84.9387 34.0865C85.0305 33.9157 85.0764 33.7056 85.0764 33.4561C85.0764 33.2021 85.0305 32.992 84.9387 32.8256C84.8513 32.6549 84.7332 32.5279 84.5846 32.4447C84.436 32.3572 84.2764 32.3134 84.1059 32.3134C83.9398 32.3134 83.7802 32.3572 83.6272 32.4447C83.4786 32.5279 83.3583 32.6549 83.2665 32.8256C83.1791 32.992 83.1354 33.2021 83.1354 33.4561C83.1354 33.7056 83.1791 33.9157 83.2665 34.0865C83.3583 34.2572 83.4764 34.3864 83.6206 34.4739C83.7693 34.5571 83.9288 34.5987 84.0993 34.5987Z" fill="white"/>
<path d="M86.4973 35.0847V31.8274H87.0809L87.1334 32.2871C87.2383 32.1164 87.376 31.9851 87.5465 31.8931C87.7214 31.7968 87.9203 31.7486 88.1432 31.7486C88.3137 31.7486 88.4668 31.7705 88.6023 31.8143C88.7422 31.8581 88.8646 31.926 88.9695 32.0179C89.0744 32.1098 89.1619 32.2258 89.2318 32.3659C89.3455 32.1733 89.5029 32.0223 89.704 31.9128C89.9051 31.8034 90.1193 31.7486 90.3466 31.7486C90.6133 31.7486 90.8428 31.8034 91.0351 31.9128C91.2319 32.0179 91.3805 32.1799 91.481 32.3988C91.586 32.6133 91.6384 32.8825 91.6384 33.2065V35.0847H90.9892V33.2722C90.9892 32.957 90.9258 32.7184 90.7991 32.5564C90.6767 32.39 90.493 32.3068 90.2482 32.3068C90.0865 32.3068 89.94 32.3506 89.8089 32.4382C89.6777 32.5214 89.575 32.6439 89.5007 32.8059C89.4307 32.9679 89.3957 33.1649 89.3957 33.397V35.0847H88.74V33.2722C88.74 32.957 88.6766 32.7184 88.5498 32.5564C88.4274 32.39 88.2438 32.3068 87.999 32.3068C87.8372 32.3068 87.6908 32.3506 87.5596 32.4382C87.4328 32.5214 87.3323 32.6439 87.258 32.8059C87.188 32.9679 87.1531 33.1649 87.1531 33.397V35.0847H86.4973Z" fill="white"/>
<path d="M92.4591 36.5294V31.8274H93.0493L93.1149 32.3397C93.1849 32.239 93.2723 32.1427 93.3772 32.0507C93.4821 31.9588 93.6067 31.8865 93.751 31.834C93.8996 31.7771 94.0723 31.7486 94.269 31.7486C94.5882 31.7486 94.8658 31.8231 95.1018 31.9719C95.3423 32.1208 95.5303 32.3243 95.6658 32.5826C95.8013 32.8409 95.8691 33.1343 95.8691 33.4626C95.8691 33.791 95.8013 34.0843 95.6658 34.3426C95.5303 34.5965 95.3423 34.7979 95.1018 34.9468C94.8614 35.0912 94.5816 35.1635 94.2625 35.1635C94.0045 35.1635 93.7772 35.1131 93.5805 35.0124C93.3838 34.9074 93.2286 34.7629 93.1149 34.579V36.5294H92.4591ZM94.1576 34.5921C94.363 34.5921 94.5445 34.544 94.7018 34.4477C94.8592 34.3514 94.9816 34.22 95.0691 34.0536C95.1609 33.8829 95.2068 33.6837 95.2068 33.4561C95.2068 33.2328 95.1609 33.0358 95.0691 32.865C94.9816 32.6943 94.8592 32.5608 94.7018 32.4644C94.5445 32.3681 94.363 32.32 94.1576 32.32C93.9565 32.32 93.775 32.3681 93.6133 32.4644C93.4559 32.5608 93.3335 32.6943 93.2461 32.865C93.1586 33.0358 93.1149 33.2328 93.1149 33.4561C93.1149 33.6793 93.1586 33.8763 93.2461 34.0471C93.3335 34.2178 93.4559 34.3514 93.6133 34.4477C93.775 34.544 93.9565 34.5921 94.1576 34.5921Z" fill="white"/>
<path d="M96.6279 35.0847V31.8274H97.2181L97.2706 32.4513C97.3449 32.3068 97.4389 32.1821 97.5525 32.077C97.6662 31.9719 97.7995 31.8909 97.9525 31.834C98.1099 31.7771 98.287 31.7486 98.4837 31.7486V32.4382H98.3001C98.1602 32.4382 98.0269 32.4557 97.9001 32.4907C97.7777 32.5257 97.6684 32.5826 97.5722 32.6615C97.4804 32.7403 97.4083 32.8497 97.3558 32.9898C97.3077 33.1255 97.2837 33.2963 97.2837 33.502V35.0847H96.6279Z" fill="white"/>
<path d="M100.486 35.1635C100.18 35.1635 99.9024 35.0934 99.6533 34.9533C99.4084 34.8089 99.2139 34.6097 99.0696 34.3557C98.9254 34.0974 98.8532 33.7975 98.8532 33.4561C98.8532 33.1146 98.9254 32.8169 99.0696 32.5629C99.2183 32.3046 99.4172 32.1054 99.6664 31.9654C99.9156 31.8209 100.193 31.7486 100.499 31.7486C100.81 31.7486 101.087 31.8209 101.332 31.9654C101.581 32.1054 101.778 32.3025 101.922 32.5564C102.066 32.8103 102.139 33.1102 102.139 33.4561C102.139 33.7975 102.064 34.0974 101.916 34.3557C101.771 34.6097 101.575 34.8089 101.325 34.9533C101.076 35.0934 100.796 35.1635 100.486 35.1635ZM100.493 34.5987C100.663 34.5987 100.823 34.5571 100.971 34.4739C101.12 34.3864 101.24 34.2572 101.332 34.0865C101.424 33.9157 101.47 33.7056 101.47 33.4561C101.47 33.2021 101.424 32.992 101.332 32.8256C101.245 32.6549 101.127 32.5279 100.978 32.4447C100.829 32.3572 100.67 32.3134 100.499 32.3134C100.333 32.3134 100.173 32.3572 100.02 32.4447C99.8718 32.5279 99.7516 32.6549 99.6598 32.8256C99.5724 32.992 99.5287 33.2021 99.5287 33.4561C99.5287 33.7056 99.5724 33.9157 99.6598 34.0865C99.7516 34.2572 99.8697 34.3864 100.014 34.4739C100.163 34.5571 100.322 34.5987 100.493 34.5987Z" fill="white"/>
<path d="M102.891 35.0847V31.8274H103.474L103.527 32.2871C103.632 32.1164 103.769 31.9851 103.94 31.8931C104.115 31.7968 104.314 31.7486 104.537 31.7486C104.707 31.7486 104.86 31.7705 104.996 31.8143C105.135 31.8581 105.258 31.926 105.363 32.0179C105.468 32.1098 105.555 32.2258 105.625 32.3659C105.739 32.1733 105.896 32.0223 106.097 31.9128C106.298 31.8034 106.513 31.7486 106.74 31.7486C107.007 31.7486 107.236 31.8034 107.428 31.9128C107.625 32.0179 107.774 32.1799 107.874 32.3988C107.979 32.6133 108.032 32.8825 108.032 33.2065V35.0847H107.383V33.2722C107.383 32.957 107.319 32.7184 107.192 32.5564C107.07 32.39 106.886 32.3068 106.642 32.3068C106.48 32.3068 106.333 32.3506 106.202 32.4382C106.071 32.5214 105.968 32.6439 105.894 32.8059C105.824 32.9679 105.789 33.1649 105.789 33.397V35.0847H105.133V33.2722C105.133 32.957 105.07 32.7184 104.943 32.5564C104.821 32.39 104.637 32.3068 104.392 32.3068C104.231 32.3068 104.084 32.3506 103.953 32.4382C103.826 32.5214 103.726 32.6439 103.651 32.8059C103.581 32.9679 103.546 33.1649 103.546 33.397V35.0847H102.891Z" fill="white"/>
<path d="M108.898 35.0847V31.8274H109.554V35.0847H108.898ZM109.226 31.1839C109.099 31.1839 108.995 31.1445 108.911 31.0657C108.833 30.9869 108.793 30.8862 108.793 30.7636C108.793 30.6454 108.833 30.5491 108.911 30.4747C108.995 30.3958 109.099 30.3564 109.226 30.3564C109.349 30.3564 109.451 30.3958 109.534 30.4747C109.617 30.5491 109.659 30.6454 109.659 30.7636C109.659 30.8862 109.617 30.9869 109.534 31.0657C109.451 31.1445 109.349 31.1839 109.226 31.1839Z" fill="white"/>
<path d="M111.758 35.1635C111.491 35.1635 111.25 35.1175 111.036 35.0256C110.826 34.9336 110.658 34.8067 110.531 34.6447C110.405 34.4783 110.328 34.2835 110.302 34.0602H110.964C110.99 34.1653 111.036 34.2616 111.102 34.3492C111.167 34.4323 111.255 34.5002 111.364 34.5527C111.478 34.6053 111.609 34.6315 111.758 34.6315C111.902 34.6315 112.02 34.6118 112.112 34.5724C112.204 34.5287 112.271 34.4717 112.315 34.4017C112.359 34.3317 112.381 34.2572 112.381 34.1784C112.381 34.0602 112.35 33.9705 112.289 33.9092C112.228 33.8479 112.138 33.7997 112.02 33.7647C111.906 33.7297 111.769 33.6947 111.607 33.6596C111.476 33.629 111.34 33.5918 111.2 33.548C111.06 33.5042 110.934 33.4495 110.82 33.3838C110.706 33.3138 110.614 33.2284 110.544 33.1277C110.474 33.0226 110.44 32.8935 110.44 32.7403C110.44 32.552 110.488 32.3835 110.584 32.2346C110.684 32.0814 110.826 31.9632 111.01 31.88C111.194 31.7924 111.412 31.7486 111.666 31.7486C112.024 31.7486 112.315 31.8362 112.538 32.0113C112.765 32.1821 112.896 32.4294 112.931 32.7534H112.302C112.28 32.6045 112.214 32.4885 112.105 32.4053C111.996 32.3222 111.847 32.2806 111.659 32.2806C111.476 32.2806 111.334 32.3178 111.233 32.3922C111.137 32.4666 111.089 32.5651 111.089 32.6877C111.089 32.7621 111.117 32.83 111.174 32.8913C111.235 32.9482 111.32 32.9964 111.43 33.0358C111.543 33.0752 111.677 33.1124 111.83 33.1474C112.044 33.1912 112.241 33.2459 112.42 33.3116C112.604 33.3773 112.752 33.4714 112.866 33.594C112.984 33.7165 113.043 33.896 113.043 34.1325C113.047 34.3338 112.997 34.5133 112.892 34.6709C112.787 34.8242 112.638 34.9446 112.446 35.0321C112.254 35.1197 112.024 35.1635 111.758 35.1635Z" fill="white"/>
<path d="M115.087 35.1635C114.821 35.1635 114.58 35.1175 114.366 35.0256C114.156 34.9336 113.988 34.8067 113.861 34.6447C113.734 34.4783 113.658 34.2835 113.632 34.0602H114.294C114.32 34.1653 114.366 34.2616 114.432 34.3492C114.497 34.4323 114.585 34.5002 114.694 34.5527C114.808 34.6053 114.939 34.6315 115.087 34.6315C115.232 34.6315 115.35 34.6118 115.442 34.5724C115.533 34.5287 115.601 34.4717 115.645 34.4017C115.689 34.3317 115.71 34.2572 115.71 34.1784C115.71 34.0602 115.68 33.9705 115.619 33.9092C115.557 33.8479 115.468 33.7997 115.35 33.7647C115.236 33.7297 115.098 33.6947 114.937 33.6596C114.805 33.629 114.67 33.5918 114.53 33.548C114.39 33.5042 114.263 33.4495 114.15 33.3838C114.036 33.3138 113.944 33.2284 113.874 33.1277C113.804 33.0226 113.769 32.8935 113.769 32.7403C113.769 32.552 113.817 32.3835 113.914 32.2346C114.014 32.0814 114.156 31.9632 114.34 31.88C114.523 31.7924 114.742 31.7486 114.996 31.7486C115.354 31.7486 115.645 31.8362 115.868 32.0113C116.095 32.1821 116.226 32.4294 116.261 32.7534H115.632C115.61 32.6045 115.544 32.4885 115.435 32.4053C115.326 32.3222 115.177 32.2806 114.989 32.2806C114.805 32.2806 114.663 32.3178 114.563 32.3922C114.467 32.4666 114.419 32.5651 114.419 32.6877C114.419 32.7621 114.447 32.83 114.504 32.8913C114.565 32.9482 114.65 32.9964 114.76 33.0358C114.873 33.0752 115.007 33.1124 115.16 33.1474C115.374 33.1912 115.571 33.2459 115.75 33.3116C115.933 33.3773 116.082 33.4714 116.196 33.594C116.314 33.7165 116.373 33.896 116.373 34.1325C116.377 34.3338 116.327 34.5133 116.222 34.6709C116.117 34.8242 115.968 34.9446 115.776 35.0321C115.584 35.1197 115.354 35.1635 115.087 35.1635Z" fill="white"/>
<path d="M118.64 35.1635C118.321 35.1635 118.039 35.0934 117.794 34.9533C117.55 34.8089 117.357 34.6097 117.217 34.3557C117.077 34.1018 117.007 33.8041 117.007 33.4626C117.007 33.1211 117.075 32.8234 117.211 32.5695C117.351 32.3112 117.543 32.1098 117.788 31.9654C118.037 31.8209 118.325 31.7486 118.653 31.7486C118.973 31.7486 119.248 31.8209 119.48 31.9654C119.716 32.1054 119.897 32.2915 120.024 32.5235C120.151 32.7556 120.214 33.0139 120.214 33.2984C120.214 33.3422 120.214 33.3904 120.214 33.4429C120.214 33.4955 120.212 33.5502 120.208 33.6071H117.493V33.1474H119.558C119.545 32.8847 119.453 32.6768 119.283 32.5235C119.112 32.3703 118.898 32.2937 118.64 32.2937C118.465 32.2937 118.301 32.3331 118.148 32.4119C118 32.4907 117.88 32.6067 117.788 32.76C117.696 32.9088 117.65 33.0992 117.65 33.3313V33.5152C117.65 33.7559 117.696 33.9573 117.788 34.1193C117.88 34.2813 118 34.4061 118.148 34.4936C118.301 34.5768 118.465 34.6184 118.64 34.6184C118.846 34.6184 119.018 34.5703 119.158 34.4739C119.298 34.3776 119.401 34.2507 119.467 34.0931H120.122C120.065 34.2988 119.969 34.4827 119.834 34.6447C119.698 34.8023 119.53 34.9292 119.329 35.0256C119.128 35.1175 118.898 35.1635 118.64 35.1635Z" fill="white"/>
<path d="M121.179 35.1175C121.052 35.1175 120.947 35.0781 120.864 34.9993C120.785 34.9161 120.746 34.8176 120.746 34.7038C120.746 34.5856 120.785 34.4871 120.864 34.4083C120.947 34.3251 121.052 34.2835 121.179 34.2835C121.305 34.2835 121.408 34.3251 121.487 34.4083C121.566 34.4871 121.605 34.5856 121.605 34.7038C121.605 34.8176 121.566 34.9161 121.487 34.9993C121.408 35.0781 121.305 35.1175 121.179 35.1175Z" fill="white"/>
<path d="M123.997 35.0847V30.4878H124.771L126.345 33.5874L127.919 30.4878H128.692V35.0847H128.037V31.637L126.601 34.428H126.096L124.653 31.637V35.0847H123.997Z" fill="white"/>
<path d="M130.701 35.1635C130.426 35.1635 130.199 35.1197 130.019 35.0321C129.84 34.9402 129.707 34.8176 129.619 34.6644C129.532 34.5111 129.488 34.3448 129.488 34.1653C129.488 33.9508 129.543 33.7669 129.652 33.6137C129.766 33.4604 129.928 33.3422 130.137 33.259C130.352 33.1759 130.607 33.1343 130.905 33.1343H131.764C131.764 32.946 131.733 32.7906 131.672 32.668C131.615 32.5454 131.53 32.4535 131.416 32.3922C131.303 32.3265 131.165 32.2937 131.003 32.2937C130.802 32.2937 130.627 32.344 130.478 32.4447C130.334 32.5411 130.247 32.6833 130.216 32.8716H129.56C129.587 32.6308 129.667 32.4294 129.803 32.2674C129.939 32.1011 130.111 31.9741 130.321 31.8865C130.535 31.7946 130.763 31.7486 131.003 31.7486C131.309 31.7486 131.567 31.8034 131.777 31.9128C131.987 32.0223 132.146 32.1777 132.256 32.3791C132.365 32.5761 132.419 32.8103 132.419 33.0817V35.0847H131.849L131.797 34.5265C131.753 34.614 131.696 34.6972 131.626 34.776C131.56 34.8548 131.482 34.9227 131.39 34.9796C131.303 35.0365 131.2 35.0803 131.082 35.1109C130.968 35.146 130.841 35.1635 130.701 35.1635ZM130.826 34.6315C130.97 34.6315 131.099 34.6031 131.213 34.5462C131.327 34.4893 131.423 34.4126 131.501 34.3163C131.58 34.2156 131.639 34.1062 131.678 33.988C131.722 33.8654 131.746 33.7384 131.751 33.6071V33.6005H130.97C130.778 33.6005 130.623 33.6224 130.505 33.6662C130.391 33.71 130.308 33.7713 130.255 33.8501C130.203 33.9289 130.177 34.0208 130.177 34.1259C130.177 34.2266 130.201 34.3163 130.249 34.3951C130.301 34.4696 130.376 34.5287 130.472 34.5724C130.568 34.6118 130.686 34.6315 130.826 34.6315Z" fill="white"/>
<path d="M134.719 35.1635C134.4 35.1635 134.118 35.089 133.873 34.9402C133.633 34.7913 133.445 34.5878 133.309 34.3295C133.174 34.0712 133.106 33.7778 133.106 33.4495C133.106 33.1211 133.174 32.83 133.309 32.5761C133.445 32.3178 133.635 32.1164 133.88 31.9719C134.125 31.8231 134.404 31.7486 134.719 31.7486C134.981 31.7486 135.211 31.8012 135.408 31.9063C135.609 32.0069 135.764 32.1492 135.873 32.3331V30.3564H136.529V35.0847H135.939L135.873 34.5724C135.803 34.6731 135.716 34.7694 135.611 34.8614C135.506 34.9489 135.379 35.0212 135.231 35.0781C135.082 35.135 134.911 35.1635 134.719 35.1635ZM134.817 34.5921C135.023 34.5921 135.204 34.544 135.362 34.4477C135.519 34.3514 135.642 34.2178 135.729 34.0471C135.821 33.8763 135.867 33.6793 135.867 33.4561C135.867 33.2284 135.821 33.0314 135.729 32.865C135.642 32.6943 135.519 32.5608 135.362 32.4644C135.204 32.3681 135.023 32.32 134.817 32.32C134.616 32.32 134.437 32.3681 134.28 32.4644C134.122 32.5608 134 32.6943 133.913 32.865C133.825 33.0314 133.781 33.2284 133.781 33.4561C133.781 33.6793 133.825 33.8763 133.913 34.0471C134 34.2178 134.122 34.3514 134.28 34.4477C134.437 34.544 134.616 34.5921 134.817 34.5921Z" fill="white"/>
<path d="M138.908 35.1635C138.588 35.1635 138.306 35.0934 138.062 34.9533C137.817 34.8089 137.624 34.6097 137.485 34.3557C137.345 34.1018 137.275 33.8041 137.275 33.4626C137.275 33.1211 137.342 32.8234 137.478 32.5695C137.618 32.3112 137.81 32.1098 138.055 31.9654C138.304 31.8209 138.593 31.7486 138.921 31.7486C139.24 31.7486 139.515 31.8209 139.747 31.9654C139.983 32.1054 140.164 32.2915 140.291 32.5235C140.418 32.7556 140.481 33.0139 140.481 33.2984C140.481 33.3422 140.481 33.3904 140.481 33.4429C140.481 33.4955 140.479 33.5502 140.475 33.6071H137.76V33.1474H139.826C139.813 32.8847 139.721 32.6768 139.55 32.5235C139.38 32.3703 139.165 32.2937 138.908 32.2937C138.733 32.2937 138.569 32.3331 138.416 32.4119C138.267 32.4907 138.147 32.6067 138.055 32.76C137.963 32.9088 137.917 33.0992 137.917 33.3313V33.5152C137.917 33.7559 137.963 33.9573 138.055 34.1193C138.147 34.2813 138.267 34.4061 138.416 34.4936C138.569 34.5768 138.733 34.6184 138.908 34.6184C139.113 34.6184 139.286 34.5703 139.426 34.4739C139.566 34.3776 139.668 34.2507 139.734 34.0931H140.39C140.333 34.2988 140.237 34.4827 140.101 34.6447C139.966 34.8023 139.797 34.9292 139.596 35.0256C139.395 35.1175 139.165 35.1635 138.908 35.1635Z" fill="white"/>
<path d="M142.908 35.0847V31.8274H143.563V35.0847H142.908ZM143.235 31.1839C143.109 31.1839 143.004 31.1445 142.921 31.0657C142.842 30.9869 142.803 30.8862 142.803 30.7636C142.803 30.6454 142.842 30.5491 142.921 30.4747C143.004 30.3958 143.109 30.3564 143.235 30.3564C143.358 30.3564 143.461 30.3958 143.544 30.4747C143.627 30.5491 143.668 30.6454 143.668 30.7636C143.668 30.8862 143.627 30.9869 143.544 31.0657C143.461 31.1445 143.358 31.1839 143.235 31.1839Z" fill="white"/>
<path d="M144.488 35.0847V31.8274H145.072L145.118 32.3988C145.223 32.1974 145.371 32.0398 145.564 31.926C145.756 31.8077 145.979 31.7486 146.232 31.7486C146.495 31.7486 146.72 31.8034 146.908 31.9128C147.096 32.0179 147.24 32.1777 147.341 32.3922C147.446 32.6067 147.498 32.8782 147.498 33.2065V35.0847H146.849V33.2722C146.849 32.957 146.781 32.7184 146.646 32.5564C146.514 32.39 146.318 32.3068 146.055 32.3068C145.88 32.3068 145.723 32.3506 145.583 32.4382C145.448 32.5214 145.341 32.6439 145.262 32.8059C145.183 32.9679 145.144 33.1649 145.144 33.397V35.0847H144.488Z" fill="white"/>
<path d="M151.995 35.1635C151.563 35.1635 151.185 35.065 150.861 34.868C150.538 34.6709 150.286 34.3951 150.107 34.0405C149.928 33.6859 149.838 33.2722 149.838 32.7994C149.838 32.3309 149.93 31.9172 150.113 31.5582C150.297 31.1992 150.557 30.919 150.894 30.7176C151.23 30.5119 151.63 30.409 152.094 30.409C152.618 30.409 153.053 30.5359 153.399 30.7899C153.749 31.0394 153.974 31.3875 154.074 31.834H153.327C153.265 31.5801 153.128 31.3809 152.914 31.2364C152.704 31.0876 152.43 31.0131 152.094 31.0131C151.77 31.0131 151.488 31.0854 151.248 31.2299C151.012 31.3743 150.828 31.5801 150.697 31.8471C150.57 32.1142 150.507 32.4316 150.507 32.7994C150.507 33.1715 150.57 33.4911 150.697 33.7581C150.828 34.0252 151.007 34.2288 151.235 34.3689C151.467 34.509 151.733 34.579 152.035 34.579C152.498 34.579 152.848 34.4455 153.084 34.1784C153.32 33.9114 153.456 33.5546 153.491 33.108H152.232V32.6023H154.159V35.0847H153.556L153.504 34.382C153.399 34.5527 153.276 34.6972 153.136 34.8154C153.001 34.9292 152.839 35.0168 152.651 35.0781C152.468 35.135 152.249 35.1635 151.995 35.1635Z" fill="white"/>
<path d="M156.479 35.1635C156.16 35.1635 155.878 35.0934 155.633 34.9533C155.388 34.8089 155.196 34.6097 155.056 34.3557C154.916 34.1018 154.846 33.8041 154.846 33.4626C154.846 33.1211 154.914 32.8234 155.049 32.5695C155.189 32.3112 155.382 32.1098 155.626 31.9654C155.876 31.8209 156.164 31.7486 156.492 31.7486C156.811 31.7486 157.087 31.8209 157.318 31.9654C157.554 32.1054 157.736 32.2915 157.863 32.5235C157.989 32.7556 158.053 33.0139 158.053 33.2984C158.053 33.3422 158.053 33.3904 158.053 33.4429C158.053 33.4955 158.05 33.5502 158.046 33.6071H155.331V33.1474H157.397C157.384 32.8847 157.292 32.6768 157.122 32.5235C156.951 32.3703 156.737 32.2937 156.479 32.2937C156.304 32.2937 156.14 32.3331 155.987 32.4119C155.838 32.4907 155.718 32.6067 155.626 32.76C155.535 32.9088 155.489 33.0992 155.489 33.3313V33.5152C155.489 33.7559 155.535 33.9573 155.626 34.1193C155.718 34.2813 155.838 34.4061 155.987 34.4936C156.14 34.5768 156.304 34.6184 156.479 34.6184C156.684 34.6184 156.857 34.5703 156.997 34.4739C157.137 34.3776 157.24 34.2507 157.305 34.0931H157.961C157.904 34.2988 157.808 34.4827 157.672 34.6447C157.537 34.8023 157.369 34.9292 157.167 35.0256C156.966 35.1175 156.737 35.1635 156.479 35.1635Z" fill="white"/>
<path d="M158.768 35.0847V31.8274H159.358L159.411 32.4513C159.485 32.3068 159.579 32.1821 159.693 32.077C159.806 31.9719 159.94 31.8909 160.093 31.834C160.25 31.7771 160.427 31.7486 160.624 31.7486V32.4382H160.44C160.3 32.4382 160.167 32.4557 160.04 32.4907C159.918 32.5257 159.809 32.5826 159.712 32.6615C159.621 32.7403 159.548 32.8497 159.496 32.9898C159.448 33.1255 159.424 33.2963 159.424 33.502V35.0847H158.768Z" fill="white"/>
<path d="M161.221 35.0847V31.8274H161.804L161.857 32.2871C161.962 32.1164 162.099 31.9851 162.27 31.8931C162.445 31.7968 162.644 31.7486 162.867 31.7486C163.037 31.7486 163.19 31.7705 163.326 31.8143C163.465 31.8581 163.588 31.926 163.693 32.0179C163.798 32.1098 163.885 32.2258 163.955 32.3659C164.069 32.1733 164.226 32.0223 164.427 31.9128C164.628 31.8034 164.843 31.7486 165.07 31.7486C165.337 31.7486 165.566 31.8034 165.758 31.9128C165.955 32.0179 166.104 32.1799 166.204 32.3988C166.309 32.6133 166.362 32.8825 166.362 33.2065V35.0847H165.713V33.2722C165.713 32.957 165.649 32.7184 165.522 32.5564C165.4 32.39 165.216 32.3068 164.972 32.3068C164.81 32.3068 164.663 32.3506 164.532 32.4382C164.401 32.5214 164.298 32.6439 164.224 32.8059C164.154 32.9679 164.119 33.1649 164.119 33.397V35.0847H163.463V33.2722C163.463 32.957 163.4 32.7184 163.273 32.5564C163.151 32.39 162.967 32.3068 162.722 32.3068C162.561 32.3068 162.414 32.3506 162.283 32.4382C162.156 32.5214 162.056 32.6439 161.981 32.8059C161.911 32.9679 161.876 33.1649 161.876 33.397V35.0847H161.221Z" fill="white"/>
<path d="M168.278 35.1635C168.002 35.1635 167.775 35.1197 167.596 35.0321C167.416 34.9402 167.283 34.8176 167.196 34.6644C167.108 34.5111 167.064 34.3448 167.064 34.1653C167.064 33.9508 167.119 33.7669 167.228 33.6137C167.342 33.4604 167.504 33.3422 167.714 33.259C167.928 33.1759 168.184 33.1343 168.481 33.1343H169.34C169.34 32.946 169.309 32.7906 169.248 32.668C169.191 32.5454 169.106 32.4535 168.992 32.3922C168.879 32.3265 168.741 32.2937 168.579 32.2937C168.378 32.2937 168.203 32.344 168.055 32.4447C167.91 32.5411 167.823 32.6833 167.792 32.8716H167.137C167.163 32.6308 167.244 32.4294 167.379 32.2674C167.515 32.1011 167.687 31.9741 167.897 31.8865C168.111 31.7946 168.339 31.7486 168.579 31.7486C168.885 31.7486 169.143 31.8034 169.353 31.9128C169.563 32.0223 169.722 32.1777 169.832 32.3791C169.941 32.5761 169.996 32.8103 169.996 33.0817V35.0847H169.425L169.373 34.5265C169.329 34.614 169.272 34.6972 169.202 34.776C169.137 34.8548 169.058 34.9227 168.966 34.9796C168.879 35.0365 168.776 35.0803 168.658 35.1109C168.544 35.146 168.417 35.1635 168.278 35.1635ZM168.402 34.6315C168.546 34.6315 168.675 34.6031 168.789 34.5462C168.903 34.4893 168.999 34.4126 169.078 34.3163C169.156 34.2156 169.215 34.1062 169.255 33.988C169.298 33.8654 169.322 33.7384 169.327 33.6071V33.6005H168.546C168.354 33.6005 168.199 33.6224 168.081 33.6662C167.967 33.71 167.884 33.7713 167.832 33.8501C167.779 33.9289 167.753 34.0208 167.753 34.1259C167.753 34.2266 167.777 34.3163 167.825 34.3951C167.878 34.4696 167.952 34.5287 168.048 34.5724C168.144 34.6118 168.262 34.6315 168.402 34.6315Z" fill="white"/>
<path d="M170.813 35.0847V31.8274H171.397L171.443 32.3988C171.548 32.1974 171.696 32.0398 171.889 31.926C172.081 31.8077 172.304 31.7486 172.558 31.7486C172.82 31.7486 173.045 31.8034 173.233 31.9128C173.421 32.0179 173.565 32.1777 173.666 32.3922C173.771 32.6067 173.823 32.8782 173.823 33.2065V35.0847H173.174V33.2722C173.174 32.957 173.106 32.7184 172.971 32.5564C172.84 32.39 172.643 32.3068 172.381 32.3068C172.206 32.3068 172.048 32.3506 171.908 32.4382C171.773 32.5214 171.666 32.6439 171.587 32.8059C171.508 32.9679 171.469 33.1649 171.469 33.397V35.0847H170.813Z" fill="white"/>
<path d="M174.907 36.5294L175.721 34.7169H175.53L174.225 31.8274H174.934L175.976 34.185L177.019 31.8274H177.708L175.603 36.5294H174.907Z" fill="white"/>
<path d="M178.049 35.1175C177.922 35.1175 177.817 35.0781 177.734 34.9993C177.655 34.9161 177.616 34.8176 177.616 34.7038C177.616 34.5856 177.655 34.4871 177.734 34.4083C177.817 34.3251 177.922 34.2835 178.049 34.2835C178.176 34.2835 178.278 34.3251 178.357 34.4083C178.436 34.4871 178.475 34.5856 178.475 34.7038C178.475 34.8176 178.436 34.9161 178.357 34.9993C178.278 35.0781 178.176 35.1175 178.049 35.1175Z" fill="white"/>
</svg>
