<!-- Generated by IcoMoon.io -->
<svg version="1.1" xmlns="http://www.w3.org/2000/svg" width="1152" height="1024" viewBox="0 0 1152 1024">
<g id="icomoon-ignore">
</g>
<path fill="#57C00E" d="M1056.24 602.638c-4.967 21.854-24.395 37.361-46.807 37.361h-586.29l13.090 64h536.836c30.801 0 53.631 28.602 46.807 58.639l-11.035 48.551c37.383 18.146 63.158 56.467 63.158 100.811 0 61.855-50.145 112-112 112s-112-50.145-112-112c0-31.348 12.895-59.67 33.646-80h-419.294c20.754 20.33 33.648 48.652 33.648 80 0 61.855-50.145 112-112 112s-112-50.145-112-112c0-41.557 22.65-77.801 56.262-97.131l-140.496-686.87h-139.766c-26.51 0-48-21.49-48-48v-32c0-26.51 21.49-48 48-48h205.058c22.801 0 42.457 16.043 47.025 38.381l18.332 89.619h785.564c30.801 0 53.631 28.602 46.805 58.639z"></path>
</svg>
